# xmcd
#
# Track frame offsets: 
#        150
#        15419
#        31837
#        50833
#        70045
#        88713
#        103390
#        119516
#        137425
#        155278
#        169920
#        190762
#        205327
#        224908
#        236694
#        261959
#        279360
#
# Disc length: 3958 seconds
#
# Revision: 0
# Processed by: cddbd v1.5.2PL0 Copyright (c) Steve Scherf et al.
# Submitted via: ExactAudioCopy v1.0b3
#
DISCID=fa0f7411
DTITLE=Jimmy Buffett - Boats Beaches Bars and Ballads CD 1 - Boats
DYEAR=1992
DGENRE=Pop/Rock
TTITLE0=Son Of A Son Of A Sailor
TTITLE1=Havana Daydreamin'
TTITLE2=Manana
TTITLE3=Treat Her Like A Lady
TTITLE4=Steamer
TTITLE5=Jolly Mon Sing
TTITLE6=Nautical Wheelers
TTITLE7=Take It Back
TTITLE8=On A Slow Boat To China
TTITLE9=Changes In Latitudes, Changes In Attitudes
TTITLE10=Love and Luck
TTITLE11=The Captain and The Kid
TTITLE12=Tryin' To Reason With Hurricane Season
TTITLE13=Boat Drinks
TTITLE14=One Particular Harbour
TTITLE15=A Pirate Looks At Forty
TTITLE16=Lovely Cruise
EXTD=
EXTT0=
EXTT1=
EXTT2=
EXTT3=
EXTT4=
EXTT5=
EXTT6=
EXTT7=
EXTT8=
EXTT9=
EXTT10=
EXTT11=
EXTT12=
EXTT13=
EXTT14=
EXTT15=
EXTT16=
PLAYORDER=
